<svg width="45" height="45" viewBox="0 0 45 45" fill="none" xmlns="http://www.w3.org/2000/svg">
<path d="M33.2812 5.625C36.6467 5.625 39.375 8.35326 39.375 11.7188V33.2812C39.375 36.6467 36.6467 39.375 33.2812 39.375H11.7188C8.35326 39.375 5.625 36.6467 5.625 33.2812V11.7188C5.625 8.35326 8.35326 5.625 11.7188 5.625H33.2812ZM17.5663 28.6015H14.3075L14.1829 28.8182L14.0977 28.9894C13.8319 29.6291 14.073 30.3827 14.6877 30.7418C15.3025 31.1009 16.0774 30.9409 16.504 30.3952L16.6114 30.2369L17.5663 28.6015ZM24.9236 18.7951L23.2905 21.5926L28.2743 30.2321L28.3807 30.391C28.8044 30.939 29.5784 31.1032 30.1951 30.7474C30.8117 30.3916 31.057 29.6394 30.7946 28.9983L30.7104 28.8266L29.7686 27.1951L31.4098 27.1968L31.6006 27.1839C32.2246 27.0993 32.7186 26.6053 32.8032 25.9813L32.8161 25.7905L32.8032 25.5997C32.7186 24.9757 32.2246 24.4818 31.6006 24.3971L31.4098 24.3843L28.1467 24.3826L24.9236 18.7951ZM24.8684 13.3152C24.2536 12.9561 23.4787 13.1161 23.0521 13.6618L22.9448 13.8201L22.4935 14.5874L22.0564 13.8267L21.9499 13.6679C21.5686 13.1747 20.9035 12.9923 20.3248 13.2201L20.1356 13.3114L19.9767 13.4179C19.4835 13.7992 19.3012 14.4643 19.529 15.043L19.6203 15.2322L20.8623 17.383L16.773 24.3842L13.5967 24.3843L13.4059 24.3971C12.7195 24.4902 12.1905 25.0786 12.1905 25.7905C12.1905 26.5025 12.7195 27.0908 13.4059 27.1839L13.5967 27.1968L24.8981 27.1965L23.2762 24.384L20.0298 24.3824L25.3732 15.2388L25.4584 15.0676C25.7242 14.428 25.4831 13.6744 24.8684 13.3152Z" fill="#48126A"/>
</svg>
