<svg width="35" height="35" viewBox="0 0 35 35" fill="none" xmlns="http://www.w3.org/2000/svg">
<path fill-rule="evenodd" clip-rule="evenodd" d="M2.91669 8.75008C2.91669 5.52842 5.52836 2.91675 8.75002 2.91675H26.25C29.4716 2.91675 32.0834 5.52842 32.0834 8.75008V26.2501C32.0834 29.4717 29.4716 32.0834 26.25 32.0834H8.75002C5.52836 32.0834 2.91669 29.4717 2.91669 26.2501V8.75008ZM8.75002 5.83341C7.13919 5.83341 5.83335 7.13925 5.83335 8.75008V26.2501C5.83335 27.861 7.13919 29.1667 8.75002 29.1667H17.5V18.9584H16.0417C15.2362 18.9584 14.5834 18.3055 14.5834 17.5001C14.5834 16.6946 15.2362 16.0417 16.0417 16.0417H17.5V13.8542C17.5 11.0353 19.7852 8.75008 22.6042 8.75008H23.4792C24.2846 8.75008 24.9375 9.40301 24.9375 10.2084C24.9375 11.0138 24.2846 11.6667 23.4792 11.6667H22.6042C21.3961 11.6667 20.4167 12.6461 20.4167 13.8542V16.0417H23.4792C24.2846 16.0417 24.9375 16.6946 24.9375 17.5001C24.9375 18.3055 24.2846 18.9584 23.4792 18.9584H20.4167V29.1667H26.25C27.8609 29.1667 29.1667 27.861 29.1667 26.2501V8.75008C29.1667 7.13925 27.8609 5.83341 26.25 5.83341H8.75002Z" fill="white"/>
</svg>
