<svg width="40" height="40" viewBox="0 0 40 40" fill="none" xmlns="http://www.w3.org/2000/svg">
<path d="M23.4532 21.3721L23.1029 21.2256C22.5267 20.9815 21.9273 20.8594 21.3218 20.8594C19.5701 20.8594 17.9612 21.875 17.1885 23.4302H23.0308L22.6707 25.1758H16.7149C16.7076 25.2734 16.7028 25.376 16.7028 25.4761C16.7028 25.7252 16.7247 25.9791 16.7674 26.2354H22.4547L22.0958 27.9786H17.4474C18.2946 29.297 19.7374 30.0953 21.3219 30.0953C21.859 30.0953 22.3974 29.9977 22.9222 29.8023L23.3409 29.6461V32.0997L23.1113 32.1607C22.523 32.3194 21.9212 32.4 21.3218 32.4C18.4703 32.4 15.9056 30.6324 14.8741 27.9786H13.3995V26.2354H14.4456C14.4139 25.9668 14.3981 25.7178 14.3981 25.4761C14.3981 25.376 14.4005 25.2734 14.4054 25.1758H13.3996V23.4302H14.7155C15.6091 20.5469 18.2921 18.5522 21.322 18.5522C22.1264 18.5522 22.9174 18.6938 23.6731 18.9697L23.9246 19.0625L23.4532 21.3721Z" fill="#48126A"/>
<path d="M37.2056 13.6511C37.3777 12.9834 36.9749 12.3022 36.3059 12.1289L31.8076 10.9741L35.7615 8.81227C36.3669 8.48148 36.5891 7.72094 36.2583 7.11547C35.9274 6.51 35.1669 6.28781 34.5615 6.61984L29.5566 9.35789L32.6206 1.91648C32.6572 1.82617 32.656 1.72359 32.6145 1.63453C32.5742 1.54539 32.4973 1.47703 32.4045 1.44531C32.4045 1.44531 29.9289 0.161094 28.53 0.161094C25.6357 0.161094 22.8232 1.67844 20.2633 1.67844C19.4882 1.67844 18.7362 1.5393 18.0136 1.17672C16.3133 0.327188 14.829 0 13.424 0C11.3011 0 7.54138 1.46609 7.54138 1.46609C7.4413 1.49055 7.35708 1.55766 7.31067 1.65039C7.26427 1.74195 7.2606 1.84938 7.29966 1.94461L10.6725 10.1367C10.2574 10.3418 9.96935 10.7641 9.96935 11.2573C9.96935 11.6822 10.1829 12.0569 10.5077 12.2827C8.85856 14.248 4.79239 19.513 3.26036 25.332C1.05208 33.7268 5.97763 40 19.9547 40C33.9304 40 38.856 33.7268 36.6477 25.332C35.2964 20.2002 31.9736 15.498 30.0767 13.1103L35.6846 14.5508C36.3524 14.7229 37.0335 14.3201 37.2056 13.6511ZM13.424 3.125C14.4457 3.125 15.4601 3.39477 16.6161 3.97219C17.7183 4.52398 18.9452 4.80352 20.2636 4.80352C21.925 4.80352 23.4728 4.37867 24.9693 3.96852C26.2499 3.61695 27.4583 3.28617 28.5301 3.28617L28.6766 3.28859L25.9105 10.0073H13.9976L11.2974 3.44727C12.0397 3.24586 12.7367 3.125 13.424 3.125ZM32.7977 32.898C30.8202 35.4627 26.2597 36.875 19.9547 36.875C13.6485 36.875 9.08794 35.4627 7.11044 32.898C5.82021 31.2231 5.5406 28.9453 6.28278 26.128C7.99419 19.6241 13.4581 13.6463 13.5106 13.5889L14.514 12.5073H25.3942L26.3976 13.5889C26.4525 13.6488 31.903 19.5826 33.6254 26.128C34.3675 28.9453 34.0879 31.2231 32.7977 32.898Z" fill="#48126A"/>
</svg>
