<svg width="40" height="40" viewBox="0 0 40 40" fill="none" xmlns="http://www.w3.org/2000/svg">
<path d="M20 13.1667C18.6485 13.1667 17.3274 13.5674 16.2037 14.3183C15.0799 15.0691 14.2041 16.1364 13.6869 17.385C13.1697 18.6336 13.0344 20.0076 13.298 21.3331C13.5617 22.6586 14.2125 23.8763 15.1682 24.832C16.1238 25.7875 17.3414 26.4383 18.6669 26.702C19.9925 26.9656 21.3664 26.8303 22.615 26.3131C23.8637 25.796 24.9309 24.9201 25.6817 23.7965C26.4327 22.6726 26.8334 21.3515 26.8334 20C26.8355 19.102 26.6604 18.2125 26.3177 17.3825C25.975 16.5523 25.4719 15.7982 24.8369 15.1632C24.2019 14.5282 23.4477 14.025 22.6177 13.6823C21.7875 13.3397 20.898 13.1645 20 13.1667ZM20 24.45C19.1199 24.45 18.2595 24.189 17.5277 23.7C16.796 23.2111 16.2256 22.5161 15.8888 21.703C15.552 20.8898 15.4639 19.9951 15.6356 19.1318C15.8073 18.2686 16.2311 17.4756 16.8534 16.8533C17.4757 16.231 18.2687 15.8072 19.1319 15.6355C19.9952 15.4638 20.8899 15.5519 21.703 15.8887C22.5162 16.2255 23.2112 16.796 23.7 17.5276C24.189 18.2595 24.45 19.1198 24.45 20C24.45 21.1801 23.9812 22.3121 23.1467 23.1466C22.3122 23.9811 21.1802 24.45 20 24.45ZM28.7167 12.8833C28.7167 13.213 28.619 13.5352 28.4359 13.8093C28.2527 14.0834 27.9924 14.297 27.6879 14.4231C27.3834 14.5493 27.0482 14.5823 26.7249 14.518C26.4015 14.4537 26.1047 14.2949 25.8715 14.0618C25.6385 13.8288 25.4797 13.5318 25.4154 13.2085C25.351 12.8852 25.384 12.5501 25.5102 12.2455C25.6364 11.941 25.85 11.6807 26.124 11.4976C26.3982 11.3144 26.7204 11.2167 27.05 11.2167C27.492 11.2167 27.916 11.3923 28.2285 11.7048C28.5412 12.0174 28.7167 12.4413 28.7167 12.8833ZM33.2334 14.55C33.2819 12.478 32.509 10.471 31.0834 8.96665C29.587 7.5228 27.579 6.73158 25.5 6.76665C23.3334 6.66665 16.6667 6.66665 14.5 6.76665C12.4287 6.7218 10.423 7.49417 8.91671 8.91665C7.49111 10.421 6.71824 12.428 6.76671 14.5C6.66671 16.6666 6.66671 23.3333 6.76671 25.5C6.71824 27.572 7.49111 29.579 8.91671 31.0833C10.423 32.5058 12.4287 33.2781 14.5 33.2333C16.7 33.3666 23.3 33.3666 25.5 33.2333C27.572 33.2818 29.579 32.509 31.0834 31.0833C32.509 29.579 33.2819 27.572 33.2334 25.5C33.3334 23.3333 33.3334 16.6666 33.2334 14.5V14.55ZM30.4 27.8833C30.1737 28.4566 29.8322 28.9771 29.3964 29.413C28.9605 29.8488 28.44 30.1903 27.8667 30.4166C25.2794 30.9398 22.6344 31.1191 20 30.95C17.3714 31.1193 14.7317 30.94 12.15 30.4166C11.5768 30.1903 11.0562 29.8488 10.6204 29.413C10.1846 28.9771 9.84301 28.4566 9.61671 27.8833C8.91671 26.1166 9.06671 21.95 9.06671 20.0166C9.06671 18.0833 8.91671 13.9 9.61671 12.15C9.83663 11.5711 10.1758 11.0449 10.6122 10.6056C11.0487 10.1663 11.5726 9.82368 12.15 9.59998C14.7317 9.07662 17.3714 8.89728 20 9.06665C22.6344 8.89757 25.2794 9.0769 27.8667 9.59998C28.44 9.82628 28.9605 10.1679 29.3964 10.6037C29.8322 11.0395 30.1737 11.5601 30.4 12.1333C31.1 13.9 30.9334 18.0666 30.9334 20C30.9334 21.9333 31.1 26.1166 30.4 27.8666V27.8833Z" fill="#FFFEFE"/>
</svg>
