<svg width="45" height="45" viewBox="0 0 45 45" fill="none" xmlns="http://www.w3.org/2000/svg">
<path d="M4.21875 5.22851V39.7695C4.21898 39.8445 4.24133 39.9177 4.283 39.98C4.32467 40.0422 4.3838 40.0908 4.45298 40.1197C4.52215 40.1485 4.5983 40.1562 4.67186 40.1419C4.74543 40.1277 4.81314 40.092 4.8665 40.0394L22.8516 22.4999L4.8665 4.95869C4.81314 4.90607 4.74543 4.87039 4.67186 4.8561C4.5983 4.84181 4.52215 4.84957 4.45298 4.87838C4.3838 4.9072 4.32467 4.9558 4.283 5.01808C4.24133 5.08037 4.21898 5.15357 4.21875 5.22851Z" fill="#48126A"/>
<path d="M30.3926 15.293L7.84161 2.86877L7.82754 2.86086C7.43907 2.64992 7.06993 3.17551 7.38809 3.48137L25.0655 20.3845L30.3926 15.293Z" fill="#48126A"/>
<path d="M7.38985 41.5187C7.06993 41.8245 7.43907 42.3501 7.82931 42.1392L7.84337 42.1313L30.3926 29.707L25.0655 24.6138L7.38985 41.5187Z" fill="#48126A"/>
<path d="M39.4963 20.3026L33.1989 16.8345L27.2777 22.4999L33.1989 28.1627L39.4963 24.6972C41.2093 23.7506 41.2093 21.2492 39.4963 20.3026Z" fill="#48126A"/>
</svg>
