<svg width="25" height="25" viewBox="0 0 25 25" fill="none" xmlns="http://www.w3.org/2000/svg">
<g clip-path="url(#clip0_87_11)">
<path d="M11.9641 9.76093C12.1359 9.24531 12.8641 9.24531 13.0359 9.76093L14.0438 12.7875C14.2656 13.4528 14.6393 14.0573 15.1354 14.5531C15.6314 15.0489 16.2361 15.4223 16.9016 15.6437L19.9266 16.6516C20.4422 16.8234 20.4422 17.5516 19.9266 17.7234L16.9 18.7312C16.2347 18.9531 15.6302 19.3268 15.1344 19.8229C14.6386 20.3189 14.2652 20.9236 14.0438 21.5891L13.0359 24.6141C12.9989 24.727 12.9271 24.8253 12.8309 24.895C12.7346 24.9647 12.6188 25.0022 12.5 25.0022C12.3812 25.0022 12.2654 24.9647 12.1691 24.895C12.0729 24.8253 12.0011 24.727 11.9641 24.6141L10.9563 21.5875C10.7346 20.9223 10.3611 20.318 9.86531 19.8222C9.36955 19.3264 8.76516 18.9529 8.10001 18.7312L5.07345 17.7234C4.96054 17.6864 4.86222 17.6146 4.79251 17.5184C4.72281 17.4221 4.68527 17.3063 4.68527 17.1875C4.68527 17.0687 4.72281 16.9529 4.79251 16.8566C4.86222 16.7604 4.96054 16.6886 5.07345 16.6516L8.10001 15.6437C8.76516 15.4221 9.36955 15.0486 9.86531 14.5528C10.3611 14.057 10.7346 13.4526 10.9563 12.7875L11.9641 9.76093ZM5.92813 1.79374C5.95054 1.72608 5.9937 1.6672 6.05148 1.62546C6.10927 1.58373 6.17873 1.56127 6.25001 1.56127C6.32129 1.56127 6.39075 1.58373 6.44853 1.62546C6.50632 1.6672 6.54948 1.72608 6.57188 1.79374L7.17657 3.60937C7.44688 4.41875 8.08126 5.05312 8.89063 5.32343L10.7063 5.92812C10.7739 5.95053 10.8328 5.99369 10.8745 6.05147C10.9163 6.10925 10.9387 6.17872 10.9387 6.25C10.9387 6.32127 10.9163 6.39074 10.8745 6.44852C10.8328 6.5063 10.7739 6.54946 10.7063 6.57187L8.89063 7.17656C8.49146 7.30955 8.12874 7.53369 7.83122 7.8312C7.5337 8.12872 7.30957 8.49144 7.17657 8.89062L6.57188 10.7062C6.54948 10.7739 6.50632 10.8328 6.44853 10.8745C6.39075 10.9163 6.32129 10.9387 6.25001 10.9387C6.17873 10.9387 6.10927 10.9163 6.05148 10.8745C5.9937 10.8328 5.95054 10.7739 5.92813 10.7062L5.32345 8.89062C5.19045 8.49144 4.96632 8.12872 4.6688 7.8312C4.37128 7.53369 4.00856 7.30955 3.60938 7.17656L1.79376 6.57187C1.72609 6.54946 1.66721 6.5063 1.62548 6.44852C1.58374 6.39074 1.56128 6.32127 1.56128 6.25C1.56128 6.17872 1.58374 6.10925 1.62548 6.05147C1.66721 5.99369 1.72609 5.95053 1.79376 5.92812L3.60938 5.32343C4.00856 5.19044 4.37128 4.9663 4.6688 4.66879C4.96632 4.37127 5.19045 4.00855 5.32345 3.60937L5.92813 1.79374ZM16.9734 0.154682C16.9889 0.110192 17.0178 0.0716136 17.0561 0.04431C17.0945 0.0170063 17.1404 0.00233459 17.1875 0.00233459C17.2346 0.00233459 17.2805 0.0170063 17.3189 0.04431C17.3572 0.0716136 17.3861 0.110192 17.4016 0.154682L17.8047 1.36406C17.9844 1.90468 18.4078 2.32812 18.9484 2.50781L20.1578 2.91093C20.2023 2.92636 20.2409 2.95526 20.2682 2.99362C20.2955 3.03199 20.3102 3.07791 20.3102 3.12499C20.3102 3.17208 20.2955 3.218 20.2682 3.25637C20.2409 3.29473 20.2023 3.32363 20.1578 3.33906L18.9484 3.74218C18.682 3.83081 18.4399 3.98033 18.2414 4.17887C18.0428 4.37742 17.8933 4.61951 17.8047 4.88593L17.4016 6.09531C17.3861 6.1398 17.3572 6.17838 17.3189 6.20568C17.2805 6.23298 17.2346 6.24766 17.1875 6.24766C17.1404 6.24766 17.0945 6.23298 17.0561 6.20568C17.0178 6.17838 16.9889 6.1398 16.9734 6.09531L16.5703 4.88593C16.4817 4.61951 16.3322 4.37742 16.1336 4.17887C15.9351 3.98033 15.693 3.83081 15.4266 3.74218L14.2188 3.33906C14.1743 3.32363 14.1357 3.29473 14.1084 3.25637C14.0811 3.218 14.0664 3.17208 14.0664 3.12499C14.0664 3.07791 14.0811 3.03199 14.1084 2.99362C14.1357 2.95526 14.1743 2.92636 14.2188 2.91093L15.4281 2.50781C15.9688 2.32812 16.3922 1.90468 16.5719 1.36406L16.9734 0.156245V0.154682Z" fill="#48126A"/>
</g>
<defs>
<clipPath id="clip0_87_11">
<rect width="25" height="25" fill="white"/>
</clipPath>
</defs>
</svg>
