<svg width="40" height="40" viewBox="0 0 40 40" fill="none" xmlns="http://www.w3.org/2000/svg">
<path fill-rule="evenodd" clip-rule="evenodd" d="M3.33301 20C3.33301 10.7953 10.7949 3.33337 19.9997 3.33337C29.2043 3.33337 36.6663 10.7953 36.6663 20C36.6663 29.2047 29.2043 36.6667 19.9997 36.6667C10.7949 36.6667 3.33301 29.2047 3.33301 20ZM19.9995 10C16.3176 10 13.3329 12.9848 13.3329 16.6667C13.3329 20.3485 16.3176 23.3334 19.9995 23.3334C23.6813 23.3334 26.6662 20.3485 26.6662 16.6667C26.6662 12.9848 23.6813 10 19.9995 10ZM28.5188 26.6624C29.7818 27.4757 29.7202 29.2485 28.57 30.2147C26.2525 32.161 23.2632 33.3334 19.9998 33.3334C16.7582 33.3334 13.7866 32.1765 11.4756 30.253C10.3152 29.2872 10.2537 27.5054 11.5222 26.6867C11.9171 26.4319 12.3471 26.2085 12.8138 26.0162C14.6916 25.242 17.09 25 19.9997 25C22.924 25 25.336 25.2265 27.2187 25.9924C27.689 26.1837 28.122 26.4069 28.5188 26.6624Z" fill="#FDB200"/>
</svg>
