<svg width="35" height="35" viewBox="0 0 35 35" fill="none" xmlns="http://www.w3.org/2000/svg">
<path d="M33.6022 26.8833C32.9623 28.3216 31.3119 29.6242 29.762 29.9119C29.6034 29.9414 25.8158 30.625 17.5109 30.625H17.4891C9.18532 30.625 5.39438 29.9414 5.23688 29.913C3.68704 29.6242 2.03547 28.3216 1.39454 26.8822C1.33766 26.7542 0.00109863 23.6764 0.00109863 17.5C0.00109863 11.3236 1.33766 8.24469 1.39454 8.11672C2.03547 6.67734 3.68704 5.37578 5.23688 5.08813C5.39438 5.05859 9.18532 4.375 17.4891 4.375C25.8158 4.375 29.6034 5.05859 29.7609 5.08703C31.3119 5.37578 32.9623 6.67734 33.6033 8.11563C33.6602 8.24469 35 11.3236 35 17.5C35 23.6764 33.6602 26.7542 33.6022 26.8833ZM31.6017 9.00156C31.2605 8.23484 30.1908 7.39266 29.3617 7.23844C29.3267 7.23188 25.5784 6.5625 17.5109 6.5625C9.42266 6.5625 5.6711 7.23188 5.635 7.23844C4.80594 7.39266 3.73735 8.23484 3.39501 9.00594C3.38407 9.02891 2.18969 11.8442 2.18969 17.5C2.18969 23.1547 3.38407 25.97 3.39719 25.9984C3.73735 26.7652 4.80594 27.6073 5.6361 27.7616C5.6711 27.7681 9.42266 28.4375 17.4891 28.4375H17.5109C25.5784 28.4375 29.3267 27.7681 29.3628 27.7616C30.1919 27.6073 31.2605 26.7652 31.6028 25.9941C31.6138 25.97 32.8103 23.1547 32.8103 17.5C32.8103 11.8453 31.6138 9.02891 31.6017 9.00156ZM14.8105 23.8941C14.6333 24.0067 14.4298 24.0625 14.2275 24.0625C14.0459 24.0625 13.8644 24.0177 13.6992 23.9258C13.3503 23.7333 13.1338 23.3669 13.1338 22.9688V12.0312C13.1338 11.6342 13.3481 11.2689 13.6948 11.0764C14.0416 10.8828 14.467 10.8916 14.8028 11.1005L23.5736 16.5211C23.8941 16.7191 24.0909 17.0691 24.092 17.4464C24.0931 17.8238 23.9006 18.1759 23.5813 18.3761L14.8105 23.8941ZM15.3223 13.9934V20.988L20.9311 17.4595L15.3223 13.9934Z" fill="white"/>
</svg>
